<svg t="1725016155183" class="icon" viewBox="0 0 1024 1024" version="1.1" xmlns="http://www.w3.org/2000/svg" p-id="5275" width="200" height="200"><path d="M200.704 32.3584c0 4.7104-7.168 55.296-12.288 87.4496-7.7824 48.5376-16.7936 91.5456-25.6 122.0608-15.9744 55.296-54.4768 140.0832-85.1968 186.9824-19.456 30.3104-21.0944 40.1408-4.9152 30.1056 3.4816-2.048 20.0704-18.2272 36.864-35.84l30.72-32.1536 4.7104 5.7344c36.6592 44.4416 56.5248 78.2336 79.0528 133.9392 5.3248 12.9024 13.312 28.4672 17.8176 34.4064l8.192 10.6496-26.2144 26.8288c-30.1056 30.5152-57.344 53.248-90.112 74.752-21.2992 14.1312-57.5488 33.792-77.824 42.3936-4.9152 1.8432-8.8064 4.9152-8.8064 6.5536 0 5.5296 25.8048 3.4816 55.7056-4.096 98.7136-25.3952 193.7408-81.5104 256-151.552 46.8992-52.6336 96.256-146.8416 128-243.3024 4.3008-13.312 8.3968-24.1664 9.216-24.1664 0.6144 0 5.12 4.5056 9.8304 10.24l8.6016 10.24h86.016l-1.4336 8.6016c-7.5776 49.152-23.552 109.568-38.5024 145.408-39.7312 96.0512-121.4464 184.1152-214.016 230.4-12.6976 6.3488-22.1184 12.4928-21.2992 13.312 2.2528 2.2528 36.4544-4.5056 64.9216-12.6976 82.944-24.1664 147.456-62.464 208.2816-124.3136 33.9968-34.4064 52.0192-58.7776 71.2704-96.0512 9.8304-19.0464 29.0816-65.7408 31.9488-77.2096 1.024-4.5056 1.8432-5.12 3.2768-3.072 1.024 1.6384 1.2288 0.6144 0.4096-3.072-0.8192-3.6864-0.4096-5.5296 1.2288-5.5296 1.4336 0 2.048-1.6384 1.4336-4.096-0.6144-2.2528-0.2048-4.096 0.8192-4.096s1.8432-1.6384 1.8432-3.6864c0.2048-1.8432 3.6864 7.5776 7.9872 21.0944 34.816 110.592 75.1616 185.344 144.5888 268.288 29.0816 34.6112 38.2976 43.6224 46.8992 45.056 4.096 0.8192 7.3728 2.2528 7.3728 3.4816 0 1.024-0.8192 1.2288-2.048 0.6144s-1.4336 0.2048-0.8192 1.8432c0.6144 1.8432 1.8432 2.8672 2.8672 2.2528 2.048-1.2288 12.6976-23.9616 23.7568-50.7904 11.264-27.4432 20.0704-44.8512 23.7568-47.9232 1.4336-1.2288 4.9152-2.8672 7.7824-3.6864 12.0832-3.4816 15.9744-13.5168 8.192-20.48-2.4576-2.048-16.9984-10.8544-32.768-19.2512-34.2016-18.6368-68.608-44.6464-104.2432-79.0528-43.4176-41.7792-65.1264-71.2704-86.6304-117.1456-7.9872-16.9984-26.2144-63.2832-26.2144-66.56 0-0.8192 53.248-1.6384 118.3744-1.6384 131.4816 0 127.3856 0.4096 127.3856-13.1072 0-5.7344-2.4576-9.0112-15.7696-21.9136-8.8064-8.3968-15.5648-15.7696-15.36-16.5888 0.2048-1.024-0.4096-1.4336-1.2288-1.024-1.4336 0.4096-6.3488-3.4816-32.5632-25.6-6.3488-5.3248-14.5408-10.8544-18.432-12.288-3.6864-1.4336-6.5536-3.072-6.144-3.6864 8.6016-14.7456 10.6496-22.3232 10.6496-40.96 0-41.1648-18.2272-66.7648-63.488-88.8832-20.2752-9.8304-59.5968-23.7568-67.584-23.7568-7.9872 0-7.7824 3.072 1.2288 16.5888 12.4928 18.8416 22.9376 42.1888 33.792 75.5712 15.7696 48.3328 17.2032 52.4288 23.7568 60.2112 6.7584 8.192 19.2512 15.5648 26.624 15.5648 4.096 0 1.4336 3.4816-15.5648 21.504l-20.2752 21.504h-92.5696l1.024-93.3888c1.2288-105.2672-0.6144-95.6416 18.2272-102.6048 5.12-1.8432 10.6496-4.3008 12.0832-5.3248 3.072-2.4576 3.2768-12.9024 0-14.9504-3.072-1.8432-140.9024-19.456-142.9504-18.2272-0.8192 0.4096-2.048 43.4176-2.6624 95.6416-0.8192 52.224-2.048 104.6528-2.6624 116.736l-1.4336 22.1184h-53.0432c-49.5616 0-53.0432-0.2048-52.0192-3.6864 0.6144-1.8432 3.8912-13.1072 7.3728-24.7808 10.24-33.9968 12.0832-36.4544 35.4304-43.4176 14.9504-4.7104 19.8656-8.192 19.8656-14.1312 0-11.0592-7.9872-20.0704-48.3328-54.4768C479.8464 116.5312 470.8352 110.592 459.3664 110.592c-4.9152 0-11.4688 1.2288-14.5408 2.8672-3.072 1.6384-17.8176 15.5648-32.9728 30.72L384.2048 172.032l-47.5136-0.4096-47.5136-0.6144 8.192-19.456c4.3008-10.6496 10.4448-26.2144 13.312-34.2016 7.168-20.0704 11.8784-24.576 28.0576-26.2144 16.1792-1.8432 17.8176-2.8672 18.2272-11.4688 0.4096-6.144-0.6144-7.3728-6.9632-10.6496C342.4256 65.3312 210.944 30.72 204.3904 30.72c-2.048 0-3.6864 0.8192-3.6864 1.6384z m189.2352 199.4752c-2.6624 12.6976-9.216 40.5504-14.5408 61.8496l-9.6256 38.7072-4.3008-5.7344c-10.24-14.5408-25.8048-31.5392-36.4544-40.1408-12.0832-9.8304-40.3456-24.3712-62.2592-32.3584l-12.6976-4.7104 10.6496-20.2752 10.6496-20.2752h123.4944l-4.9152 22.9376z m-135.3728 52.224c22.3232 29.9008 38.7072 60.8256 56.7296 106.0864 8.3968 21.2992 11.8784 27.648 18.0224 34.2016l5.12 5.5296-7.7824 19.0464c-7.9872 19.6608-23.7568 52.224-29.0816 60.416-3.072 4.5056-3.2768 4.3008-8.8064-11.6736-7.3728-21.2992-19.6608-41.5744-33.3824-55.7056-18.432-18.6368-51.2-38.7072-87.4496-53.6576-8.3968-3.4816-15.5648-7.3728-15.7696-8.3968-0.2048-1.2288 8.3968-12.4928 19.0464-24.9856 19.456-23.1424 63.8976-81.3056 65.7408-86.016 1.8432-4.9152 4.096-2.8672 17.6128 15.1552z" p-id="5276"></path><path d="M357.376 731.5456c4.5056 19.456 9.6256 75.9808 11.0592 119.3984 1.6384 47.104 2.048 52.224 6.7584 64.9216 10.0352 26.624 27.2384 40.5504 50.9952 40.5504 26.624 0 46.4896-12.6976 54.272-35.0208 5.7344-16.5888 5.3248-49.3568-0.8192-68.4032-15.1552-45.4656-40.3456-75.776-95.0272-113.2544-20.0704-13.5168-29.0816-16.384-27.2384-8.192zM594.5344 731.5456c4.5056 17.6128 10.0352 76.8 11.6736 120.4224 1.6384 54.8864 3.072 62.2592 14.7456 81.92 8.8064 14.5408 21.2992 22.528 38.0928 23.9616 37.2736 3.4816 60.416-18.0224 63.2832-58.9824 0.8192-13.7216 0.2048-20.6848-3.2768-34.6112-9.6256-38.5024-28.4672-67.3792-62.6688-95.8464-21.0944-17.6128-52.224-39.1168-58.9824-40.96-3.4816-0.8192-3.8912-0.4096-2.8672 4.096zM792.576 730.5216c0 1.6384 3.6864 11.264 23.552 63.0784 15.36 39.936 14.336 36.4544 22.528 84.5824 9.8304 56.32 16.9984 74.752 36.4544 91.9552 11.0592 9.6256 20.8896 12.9024 38.2976 12.9024s28.2624-3.6864 37.0688-12.4928c9.8304-9.8304 14.1312-23.1424 14.1312-44.2368 0-43.6224-15.1552-78.2336-47.3088-107.9296-12.9024-12.0832-68.1984-54.0672-100.9664-76.5952-16.9984-11.8784-23.7568-14.9504-23.7568-11.264zM194.56 768.6144c-40.96 41.984-60.2112 59.392-93.184 84.1728-24.9856 18.8416-39.936 35.2256-48.9472 53.6576-15.9744 32.5632-8.192 57.9584 21.504 71.4752 11.0592 4.9152 14.5408 5.5296 29.2864 4.7104 14.5408-0.6144 19.0464-1.6384 32.1536-8.192 46.08-22.7328 80.2816-73.1136 90.7264-132.9152 6.5536-37.888 10.6496-108.544 6.3488-109.3632-1.024-0.4096-18.2272 16.1792-37.888 36.4544z" p-id="5277"></path></svg>